<svg width="800" height="1200" viewBox="0 0 800 1200" fill="none" xmlns="http://www.w3.org/2000/svg">
  <defs>
    <linearGradient id="bg" x1="92" y1="71" x2="698" y2="1117" gradientUnits="userSpaceOnUse">
      <stop stop-color="#1D0D18"/>
      <stop offset="0.38" stop-color="#2A1622"/>
      <stop offset="1" stop-color="#060608"/>
    </linearGradient>
    <radialGradient id="spot" cx="0" cy="0" r="1" gradientUnits="userSpaceOnUse" gradientTransform="translate(390 302) rotate(90) scale(274 298)">
      <stop stop-color="#F5D17A"/>
      <stop offset="1" stop-color="#F5D17A" stop-opacity="0"/>
    </radialGradient>
    <linearGradient id="film" x1="610" y1="192" x2="288" y2="785" gradientUnits="userSpaceOnUse">
      <stop stop-color="#F8E6A4"/>
      <stop offset="1" stop-color="#C59A35"/>
    </linearGradient>
  </defs>
  <rect width="800" height="1200" fill="url(#bg)"/>
  <rect width="800" height="1200" fill="#08080B" fill-opacity="0.35"/>
  <path d="M0 0H800V134H0V0Z" fill="#0A0A0D"/>
  <path d="M0 1066H800V1200H0V1066Z" fill="#09090C"/>
  <path d="M120 0V1200" stroke="#16161B" stroke-width="18"/>
  <path d="M680 0V1200" stroke="#16161B" stroke-width="18"/>
  <rect x="170" y="168" width="460" height="748" rx="18" fill="#121317" stroke="#5D4B2D" stroke-width="2"/>
  <rect x="188" y="186" width="424" height="712" rx="10" fill="#0B0C10"/>
  <rect x="188" y="186" width="424" height="712" rx="10" fill="url(#spot)"/>
  <path d="M138 948C252 900 346 886 437 907C531 929 617 972 708 1044V1200H138V948Z" fill="#100F14"/>
  <path d="M95 1018C203 972 315 952 431 970C549 988 670 1036 800 1118V1200H95V1018Z" fill="#1A1820"/>
  <circle cx="281" cy="570" r="112" fill="#1C1F28" stroke="url(#film)" stroke-width="18"/>
  <circle cx="281" cy="570" r="73" fill="#090A0D"/>
  <circle cx="281" cy="570" r="18" fill="#D4AF37"/>
  <circle cx="224" cy="514" r="16" fill="#0C0D11"/>
  <circle cx="338" cy="514" r="16" fill="#0C0D11"/>
  <circle cx="224" cy="626" r="16" fill="#0C0D11"/>
  <circle cx="338" cy="626" r="16" fill="#0C0D11"/>
  <circle cx="200" cy="570" r="13" fill="#0C0D11"/>
  <circle cx="362" cy="570" r="13" fill="#0C0D11"/>
  <path d="M360 490L514 398C533 387 557 400 557 421V714C557 735 533 748 514 737L360 645C343 634 337 611 337 593V542C337 523 343 500 360 490Z" fill="url(#film)"/>
  <path d="M575 334C609 364 634 405 647 456" stroke="#D4AF37" stroke-width="8" stroke-linecap="round"/>
  <path d="M599 294C647 337 682 397 698 470" stroke="#D4AF37" stroke-width="8" stroke-linecap="round"/>
  <path d="M208 226H234" stroke="#D4AF37" stroke-width="10" stroke-linecap="round"/>
  <path d="M264 226H290" stroke="#D4AF37" stroke-width="10" stroke-linecap="round"/>
  <path d="M320 226H346" stroke="#D4AF37" stroke-width="10" stroke-linecap="round"/>
  <path d="M376 226H402" stroke="#D4AF37" stroke-width="10" stroke-linecap="round"/>
  <path d="M432 226H458" stroke="#D4AF37" stroke-width="10" stroke-linecap="round"/>
  <path d="M488 226H514" stroke="#D4AF37" stroke-width="10" stroke-linecap="round"/>
  <path d="M544 226H570" stroke="#D4AF37" stroke-width="10" stroke-linecap="round"/>
  <path d="M208 859H234" stroke="#D4AF37" stroke-width="10" stroke-linecap="round"/>
  <path d="M264 859H290" stroke="#D4AF37" stroke-width="10" stroke-linecap="round"/>
  <path d="M320 859H346" stroke="#D4AF37" stroke-width="10" stroke-linecap="round"/>
  <path d="M376 859H402" stroke="#D4AF37" stroke-width="10" stroke-linecap="round"/>
  <path d="M432 859H458" stroke="#D4AF37" stroke-width="10" stroke-linecap="round"/>
  <path d="M488 859H514" stroke="#D4AF37" stroke-width="10" stroke-linecap="round"/>
  <path d="M544 859H570" stroke="#D4AF37" stroke-width="10" stroke-linecap="round"/>
</svg>
